<?xml version="1.0" encoding="UTF-8"?>
<svg xmlns="http://www.w3.org/2000/svg" width="92.153mm" height="85.549mm" viewBox="3.248341 -89.760803 92.153320 85.549004">
    <path transform="matrix(0.153589,0,0,-0.153589,3.24831,-4.21183)" style="stroke:#000000;stroke-width:0.05mm;fill:none" d="M91.452209,545.5C92.728371,518.665405,102.166672,498.631317,122.895119,478.758118C128.206223,473.666168,137.040054,466.519012,142.525833,462.87558C153.392609,455.658325,162,450.535339,162,451.284882C162,451.546112,155.476578,457.468506,147.503525,464.44577C132.6026,477.485687,125.26712,486.157135,122.4981,494.005371C121.674149,496.340729,121,498.376648,121,498.529663C121,498.682648,123.362503,497.908478,126.25,496.809204C129.137497,495.709961,135.17662,494.005554,139.670258,493.021667C147.316818,491.347412,148.374451,490.782776,156.170258,484.212769C172.650375,470.323944,195.533875,445.001587,196.563187,439.514893C197.268234,435.756653,194.548584,428.615417,191.32341,425.756317C189.426285,424.074524,189.039536,424.22934,180.428238,430.118011C153.893723,448.263092,136.893036,457.884125,116,466.579224C90.909897,477.020996,80.739143,486.001404,68.522705,508.5C61.449562,521.526367,60.891586,520.631836,66.126076,504.65799C70.478317,491.376465,75.126587,483.880341,85.933212,472.715607L92.5,465.931183L86.5,466.715607C80.307037,467.525238,63.703323,467.624451,44.5,466.966583C26.922953,466.36441,17.28248,470.323456,6.067378,482.749664L0.124958,489.333771L2.057619,480.416901C6.567451,459.609467,10.253106,452.03302,19.41547,444.734955C26.315195,439.239166,42.269928,431.790802,55,428.122528C74.408928,422.529694,107.88504,417.910187,127.721558,418.087341L137.5,418.174652L124,421.050293C108.613319,424.327789,98.803696,426.852661,84.5,431.217102C76.741898,433.58429,73.929848,434.940796,71.956825,437.267731C69.662201,439.973969,69.026924,440.199646,65.456825,439.576782C58.544384,438.370819,56.673042,438.636688,48.740826,441.95163C41.118771,445.136963,36.013599,448.343414,37,449.325806C37.275002,449.599701,45.375,450.808105,55,452.011139C86.608513,455.962006,111.491501,454.804413,123.29335,448.834106C128.588898,446.155182,150.12619,432.381531,164.862045,422.249847C199.103699,398.706909,225.089172,370.767517,221.832031,360.996094C221.119049,358.857147,205.149521,368.043976,190.381165,379.088867C174.173233,391.210419,165.30368,395.90976,148.332901,401.367218C123.217529,409.443848,105.92485,412.174561,78,412.473572C57.632069,412.69165,53.853436,413.016113,38.123596,415.897522C28.566572,417.648163,20.591747,418.925079,20.40176,418.735107C19.567528,417.900848,27.862288,407.088409,34.376835,400.518188C54.182552,380.543182,82.225578,369.598053,122.5,366.123932C138.435944,364.749268,150.28154,364.051788,149.817902,364.515411C149.611191,364.722137,145.929672,365.616791,141.636765,366.50351C121.422112,370.678955,101.029663,380.566162,88.123596,392.449158L83.723999,396.5L88.112,397.175873C103.103073,399.484924,128.225433,396.161621,147.314575,389.344269C158.6259,385.304626,171.224167,378.393646,178.66449,372.146759L185.5,366.407684L186.70549,356.953857C191.193466,321.757751,193.513382,309.692505,199.194916,292C204.513687,275.437103,212.915939,258.062256,222.325623,244.168457C226.546524,237.936111,230,232.412384,230,231.893494C230,229.833389,222.965012,217.151611,218.603851,211.350006C216.061584,207.968033,208.985413,200.413467,202.879028,194.562103L191.776505,183.923233L197.003204,185.90921C214.535065,192.570801,231.005737,209.425552,239.488876,229.385574L242.310089,236.023651L237.405045,243.032379C221.349686,265.973572,211.419525,288.802734,206.100784,315C204.12619,324.725739,200.633148,349.981598,201.190262,350.504669C201.360626,350.664612,204.700577,348.490875,208.612411,345.674164L215.724808,340.552826L216.301346,329.526428C218.045609,296.166138,232.089264,262.012054,257.166962,230.141464L262.957092,222.782913L260.606567,218.641464C253.448822,206.029984,239.792358,179.774918,233.29599,166.135834C229.199921,157.536118,223.005966,144.649994,219.531662,137.5C216.057373,130.350006,212.241776,121.829697,211.052567,118.566002C208.595123,111.821693,207.408997,101.963837,208.411774,96.618561C208.973846,93.622452,209.51474,93,211.556213,93C215.527161,93,222.817612,96.956932,226.063507,100.873917C228.592911,103.926277,235,115.858559,235,117.516853C235,117.798187,233.3125,116.929489,231.25,115.586403C226.455002,112.463943,224.041595,112.071457,222.674454,114.191833C220.267578,117.924759,232.370987,148.698257,254.52092,195.163025C261.384399,209.560852,267,221.719101,267,222.181381C267,222.643646,264.673279,226.729446,261.829498,231.260941C245.002533,258.074188,235,287.022125,235,308.907074C235,313.908173,235.226166,318,235.502609,318C237.147186,318,250.065231,301.596588,257.654602,289.871246C263.682373,280.558533,275.004669,259.793793,281.848694,245.5L287.115601,234.5L284.629639,223C275.360535,180.121628,270.963104,148.507111,270.274689,119.797768C269.231232,76.282227,275.626617,44.757519,292.227844,11.583895C298.555481,-1.060363,298.121033,-1.124511,305.109955,13.485876C315.155457,34.486023,321.78775,56.846306,326.173523,84.5C328.159119,97.02002,327.859802,142.203934,325.67337,160C323.495605,177.725555,319.939606,199.506927,315.937469,219.634872L312.928131,234.769745L319.745697,248.634872C332.174103,273.91098,341.465912,289.778198,351.946289,303.622437C357.213806,310.580688,363.690613,318,364.497406,318C364.773834,318,365,313.908173,365,308.907074C365,287.022125,354.997467,258.074188,338.170502,231.260941C335.326721,226.729446,333,222.643646,333,222.181381C333,221.719101,338.615601,209.560852,345.479095,195.163025C367.628998,148.698257,379.732422,117.924759,377.325562,114.191833C375.958405,112.071457,373.544983,112.463943,368.75,115.586403C366.6875,116.929489,365,117.798187,365,117.516853C365,115.858559,371.407074,103.926277,373.936493,100.873917C377.182373,96.956932,384.472839,93,388.443787,93C390.48526,93,391.026154,93.622452,391.588226,96.618561C392.591003,101.963837,391.404877,111.821693,388.947418,118.566002C387.758209,121.829697,383.942627,130.350006,380.468323,137.5C376.994019,144.649994,370.800079,157.536118,366.70401,166.135834C360.207642,179.774918,346.551178,206.029984,339.393433,218.641464L337.042908,222.782913L342.833038,230.141464C362.458771,255.083282,376.462982,284.020721,381.480499,310C382.383392,314.674988,383.381561,323.461884,383.698669,329.526428L384.275177,340.552826L391.387604,345.674164C395.299408,348.490875,398.639374,350.664612,398.809723,350.504669C399.366852,349.981598,395.87381,324.725739,393.899231,315C388.580475,288.802734,378.650299,265.973572,362.59494,243.032379L357.689911,236.023651L360.511139,229.385574C368.994263,209.425552,385.464935,192.570801,402.996796,185.90921L408.22348,183.923233L397.120972,194.562103C391.014587,200.413467,383.938416,207.968033,381.396149,211.350006C377.035004,217.151611,370,229.833389,370,231.893494C370,232.412384,373.453461,237.936111,377.674377,244.168457C387.084045,258.062256,395.486298,275.437103,400.805084,292C406.486603,309.692505,408.806549,321.757751,413.294495,356.953857L414.5,366.407684L421.33551,372.146759C428.775848,378.393646,441.374084,385.304626,452.685425,389.344269C471.774567,396.161621,496.896942,399.484924,511.888,397.175873L516.276001,396.5L511.876404,392.449158C498.970337,380.566162,478.577881,370.678955,458.363251,366.50351C454.070313,365.616791,450.388794,364.722137,450.182098,364.515411C449.718445,364.051788,461.564056,364.749268,477.5,366.123932C517.774414,369.598053,545.817444,380.543182,565.623169,400.518188C572.137695,407.088409,580.432495,417.900848,579.598267,418.735107C579.408264,418.925079,571.433411,417.648163,561.876404,415.897522C546.146545,413.016113,542.36792,412.69165,522,412.473572C494.075134,412.174561,476.782471,409.443848,451.667084,401.367218C434.69632,395.90976,425.826782,391.210419,409.618835,379.088867C394.850464,368.043976,378.880951,358.857147,378.167969,360.996094C374.910828,370.767517,400.896301,398.706909,435.137939,422.249847C449.87381,432.381531,471.411102,446.155182,476.706635,448.834106C488.508514,454.804413,513.391479,455.962006,545,452.011139C554.625,450.808105,562.724976,449.599701,563,449.325806C563.986389,448.343414,558.881226,445.136963,551.259155,441.95163C543.326965,438.636688,541.455627,438.370819,534.543152,439.576782C530.973083,440.199646,530.337769,439.973969,528.043152,437.267731C526.070129,434.940796,523.258118,433.58429,515.5,431.217102C501.196289,426.852661,491.386688,424.327789,476,421.050293L462.5,418.174652L472.278442,418.087341C492.11496,417.910187,525.591064,422.529694,545,428.122528C557.730103,431.790802,573.684814,439.239166,580.584534,444.734955C589.746887,452.03302,593.432556,459.609467,597.942383,480.416901L599.875061,489.333771L593.932617,482.749664C582.717529,470.323456,573.077026,466.36441,555.5,466.966583C536.296692,467.624451,519.692993,467.525238,513.5,466.715607L507.5,465.931183L514.066772,472.715607C524.873413,483.880341,529.521667,491.376465,533.873901,504.65799C539.108398,520.631836,538.550415,521.526367,531.477295,508.5C519.260864,486.001404,509.090118,477.020996,484,466.579224C463.106964,457.884125,446.106293,448.263092,419.571777,430.118011C410.960449,424.22934,410.57373,424.074524,408.676575,425.756317C405.451416,428.615417,402.731781,435.756653,403.436829,439.514893C404.466125,445.001587,427.349609,470.323944,443.829742,484.212769C451.625549,490.782776,452.683167,491.347412,460.329742,493.021667C464.823395,494.005554,470.862488,495.709961,473.75,496.809204C476.637512,497.908478,479,498.682648,479,498.529663C479,498.376648,478.325867,496.340729,477.501892,494.005371C474.73288,486.157135,467.3974,477.485687,452.49649,464.44577C444.523407,457.468506,438,451.546112,438,451.284882C438,450.535339,446.607391,455.658325,457.474152,462.87558C462.959961,466.519012,471.793762,473.666168,477.104889,478.758118C497.833344,498.631317,507.271637,518.665405,508.547791,545.5L509.070923,556.5L503.619995,545.281433C493.125854,523.683472,483.690552,512.597961,470.5,506.368866C463.432495,503.031311,453.398438,500,449.418213,500C442.372711,500,418.172272,478.359161,397.977448,454C392.277771,447.125,383.580872,437.350342,378.651001,432.278564C372.772278,426.230621,370.171509,422.904297,371.093781,422.613037C371.867218,422.368774,374.87149,421.926056,377.769958,421.629211C386.919403,420.6922,391.762115,416.161041,389.043365,411.081055C388.423706,409.923187,384.541992,404.921143,380.417328,399.965424C360.092438,375.545288,344.874054,352.856598,334.494232,331.5C328.543182,319.255615,322.522644,304.144012,323.289856,303.376831C323.480469,303.186188,325.776154,305.944366,328.391388,309.506104C333.966095,317.09848,344.686981,327.944763,350.820282,332.197296C353.196442,333.844818,355.2854,335.036896,355.462463,334.846405C355.639526,334.655884,349.939209,326.399994,342.795135,316.5C327.427338,295.203918,309.646362,268.768951,304.500916,259.567993C302.480743,255.955597,300.682892,253,300.505707,253C300.328522,253,298.518799,256.037506,296.4841,259.75C292.053467,267.834167,274.773438,292.929962,257.063873,317C249.982269,326.625,244.339249,334.655884,244.523834,334.846405C245.247391,335.59317,253.83548,328.86969,260.176849,322.591888C263.849121,318.956451,268.993408,313.067841,271.608612,309.506104C274.223846,305.944366,276.519531,303.186188,276.710144,303.376831C277.477356,304.144012,271.456818,319.255615,265.505768,331.5C255.125961,352.856598,239.907562,375.545288,219.582657,399.965424C215.458008,404.921143,211.576294,409.923187,210.956619,411.081055C208.237885,416.161041,213.080582,420.6922,222.230057,421.629211C225.128525,421.926056,228.132797,422.368774,228.906219,422.613037C229.828491,422.904297,227.227707,426.230621,221.349014,432.278564C216.419128,437.350342,207.722229,447.125,202.022552,454C181.827728,478.359161,157.627289,500,150.581787,500C146.601547,500,136.56749,503.031311,129.5,506.368866C116.309448,512.597961,106.874153,523.683472,96.380013,545.281433L90.929092,556.5L91.452209,545.5z"/>
    <path transform="matrix(0.153589,0,0,-0.153589,3.24831,-4.21183)" style="stroke:#000000;stroke-width:0.05mm;fill:none" d="M306.277222,197.75C310.83374,167.477997,311.363892,161.389114,311.392303,139C311.419678,117.447769,310.320251,106.531097,306.356812,89C304.732941,81.817238,301.34314,69.974609,299.783783,66.036438C298.786133,63.516857,298.769989,63.526585,297.351257,67.5C292.181885,81.977859,289.043457,102.130623,289.019531,121C288.996887,138.863007,291.069153,155.827728,297.055389,186.786453C299.774933,200.850937,302,213.177628,302,214.179123C302,215.180603,302.344299,216,302.765137,216C303.185944,216,304.766388,207.787506,306.277222,197.75z"/>
    <path transform="matrix(0.153589,0,0,-0.153589,3.24831,-4.21183)" style="stroke:#000000;stroke-width:0.05mm;fill:none" d="M242.5,476.184631C234.714142,472.489471,229.066452,464.345795,229.021957,456.75C229.009888,454.6875,229.170044,453,229.377869,453C229.585709,453,231.371262,453.674988,233.345764,454.5C243.03363,458.547852,250.727859,454.62854,256.349823,442.782166C262.785583,429.220886,264.907013,411.748535,261.119263,403.5C259.143921,399.198273,257.219849,397.207336,252.5,394.580994L249.5,392.911652L254.842911,393.317963C261.73938,393.842407,265.220642,397.169006,268.591553,406.45578C273.640045,420.364197,272.57489,432.212799,264.438873,452.650269C261.997498,458.782898,260,464.101044,260,464.468353C260,464.835663,261.320282,464.196075,262.933929,463.047058C266.577423,460.452667,272.050262,458.499176,278.246185,457.581543C282.138519,457.005066,283.100891,456.446198,283.595642,454.474976C284.187775,452.115753,292.726563,443.39325,293.594421,444.261078C293.837738,444.504425,293.163269,447.510284,292.095551,450.940796L290.154297,457.178101L292.827148,456.546967C297.794128,455.374146,303.398407,450.495392,310.712646,440.976929C325.747498,421.411102,337.716431,413.454407,359.570282,408.497284C371.442108,405.804413,375.542175,405.388245,369.971161,407.441559C350.955902,414.449982,333.140472,429.656067,318.706421,451.197784C314.419952,457.595001,309.357269,464.015594,307.456024,465.465729C299.890594,471.236176,292.711853,472.327179,283.541809,469.100159L278.583649,467.355347L269.039459,472.272949C257.505981,478.215515,249.321045,479.421906,242.5,476.184631z"/>
    <path transform="matrix(0.153589,0,0,-0.153589,3.24831,-4.21183)" style="stroke:#000000;stroke-width:0.05mm;fill:none" d="M302.455597,428.481293C306.709167,414.347748,320.080719,403.235046,333.970581,402.29007L340.5,401.845856L332.5,405.853973C322.812561,410.70755,312.940857,418.698486,306.491913,426.906982C303.8591,430.258148,301.567871,433,301.40033,433C301.232758,433,301.707642,430.966583,302.455597,428.481293z"/>
    <path transform="matrix(0.153589,0,0,-0.153589,3.24831,-4.21183)" style="stroke:#000000;stroke-width:0.05mm;fill:none" d="M276.746826,423.5C277.161072,421.850006,277.47171,415.549988,277.437134,409.5C277.37973,399.455261,277.121368,397.980865,274.462036,392.521851C272.778503,389.065918,269.113342,384.144775,265.774902,380.857758C262.598694,377.730499,260,374.860413,260,374.479828C260,374.099213,261.347687,372.086243,262.994843,370.006531C271.952545,358.696472,284.531128,334.184723,295.070984,307.5C297.677856,300.899994,300.030396,296.174988,300.298859,297C300.567322,297.825012,302.021729,303.450012,303.530823,309.5C309.781219,334.557739,321.151093,357.316162,339.113617,380.724152L345.080536,388.5L338.108368,389.216431C325.037415,390.55957,313.511963,395.635651,302.702637,404.810028C297.101288,409.564148,289.337616,418.0289,286.233521,422.766357C283.643311,426.719513,283.683868,424.370239,286.304688,418.64566C290.978241,408.437256,301.597717,394.395691,315.214722,380.419464C321.540741,373.926575,321.971191,373.2211,320.401031,371.919464C315.178772,367.590179,304.559204,352.460022,299.557617,342.222931L296.490814,335.945862L292.584381,345.222931C289.088318,353.525421,283.57077,362.883453,277.975647,370C276.011108,372.498749,276.011383,372.503113,278.518677,378.685303C281.548523,386.155975,283,393.353271,283,400.906586C283,406.802856,279.952911,419.431305,277.453522,423.893585L275.993622,426.5L276.746826,423.5z"/>
    <path transform="matrix(0.153589,0,0,-0.153589,3.24831,-4.21183)" style="stroke:#000000;stroke-width:0.05mm;fill:none" d="M165,358.911438C150.542542,346.96936,134.218445,340.371033,121.184677,341.200989C115.505829,341.562592,114.409126,341.977692,111.995361,344.679169L109.254471,347.746735L106.542473,344.873383C104.829659,343.058655,102.814079,342,101.071777,342C95.180031,342,80.555458,348.437256,72.184319,354.715332C70.360695,356.082977,68.64373,356.977081,68.368843,356.702179C67.662354,355.995697,73.565186,344.544586,78.025551,337.968781C83.360512,330.103607,93.407608,321.078247,101.531342,316.853424C114.326309,310.19931,131.449554,307.693634,146.5,310.273071L154.5,311.644196L150,312.818451C139.041092,315.678192,130.93605,318.500488,123.5,322.046173C110.243767,328.367065,110.242073,328.374542,121.643158,330.256195C138.633957,333.060364,150.369492,339.161957,162.5,351.498627C168.99054,358.099518,175.263718,366.126556,173.806534,365.966278C173.637939,365.947754,169.675003,362.773071,165,358.911438z"/>
    <path transform="matrix(0.153589,0,0,-0.153589,3.24831,-4.21183)" style="stroke:#000000;stroke-width:0.05mm;fill:none" d="M428.68045,361.783997C429.681183,359.990967,434.325012,354.672516,439,349.965271C451.46698,337.412262,463.139984,331.536682,481.175995,328.736053L489.5,327.443512L484.519409,324.491608C477.729126,320.467102,465.233795,315.522827,455.026001,312.82135L446.552002,310.578735L450.526001,309.617157C457.345062,307.967163,478.705078,308.437622,485.913422,310.396545C504.786102,315.52536,519.691284,328.547546,529.928589,348.851196C531.68988,352.34436,532.98291,355.350403,532.802002,355.531342C532.621094,355.71225,530.004089,354.26712,526.986511,352.319916C518.471313,346.825165,507.398102,341.952911,501.96225,341.309113C497.432678,340.772675,496.802124,340.964569,494.369141,343.619965L491.715851,346.515839L488.457916,343.257904C485.498596,340.298615,484.645416,340,479.149231,340C475.821289,340,470.713806,340.487885,467.799225,341.084229C459.346039,342.813751,445.335541,350.167297,435.68045,357.942108C427.947968,364.168732,427.085144,364.642273,428.68045,361.783997z"/>
    <path transform="matrix(0.153589,0,0,-0.153589,3.24831,-4.21183)" style="stroke:#000000;stroke-width:0.05mm;fill:none" d="M172.066223,316.771759C155.945892,299.129303,128.945175,289.61673,108.603027,294.413177C104.809692,295.307587,101.531921,295.865265,101.319092,295.652435C100.458717,294.792053,109.329933,284.815674,114.276047,281.081329C132.616989,267.233795,155.045975,266.976135,167.997986,280.464172L171.495972,284.106934L166.68251,281.977692C160.11412,279.072205,151.036301,278.990265,144.75,281.779755C142.137497,282.939026,140,284.098846,140,284.357086C140,284.615356,143.487503,286.530212,147.75,288.612335C157.995834,293.617157,169.006943,304.452148,174.387177,314.823517C176.4767,318.85144,178.031891,322.275635,177.843155,322.432831C177.654419,322.590027,175.054794,320.042542,172.066223,316.771759z"/>
    <path transform="matrix(0.153589,0,0,-0.153589,3.24831,-4.21183)" style="stroke:#000000;stroke-width:0.05mm;fill:none" d="M423,321.22226C423,321.068665,424.301208,318.365295,425.891541,315.214844C432.646912,301.83252,442.316254,292.407074,455.464935,286.387421C458.509216,284.993713,461,283.636078,461,283.370453C461,283.104858,458.862488,281.934631,456.25,280.769989C449.86145,277.921967,441.144562,277.940643,434.5,280.816559L429.5,282.980682L434.722382,278.079895C442.524231,270.758423,453.173615,267.831085,464.5,269.89447C471.459564,271.162323,482.807709,276.497528,488.348419,281.106567C492.391815,284.470032,500.347076,293.986267,499.676239,294.657074C499.460846,294.872498,496.651031,294.362762,493.43222,293.524353C473.878723,288.431335,448.748566,296.495178,431.268066,313.471802C426.720642,317.888153,423,321.375885,423,321.22226z"/>
    <path transform="matrix(0.153589,0,0,-0.153589,3.24831,-4.21183)" style="stroke:#000000;stroke-width:0.05mm;fill:none" d="M188.591675,283.257599C188.194778,282.024261,186.113831,278.793396,183.967346,276.077881C170.69664,259.289215,148.475082,245.347,129,241.590408L122.5,240.336609L128.535248,237.262314C150.337997,226.156235,167.556488,228.112686,181.610825,243.29306C187.192352,249.321777,187.934128,251.105484,183.979553,248.989059C180.825241,247.300919,173.651306,247.430405,171.093979,249.221619C168.904404,250.755264,168.904999,250.756699,173.105194,254.083313C179.369873,259.045044,185.380112,267.852112,187.944901,275.828644C189.19043,279.70224,190.007843,283.462921,189.761398,284.18576C189.484802,284.997009,189.037125,284.641785,188.591675,283.257599z"/>
    <path transform="matrix(0.153589,0,0,-0.153589,3.24831,-4.21183)" style="stroke:#000000;stroke-width:0.05mm;fill:none" d="M411.009369,282.839081C410.989807,279.375458,414.91626,268.805573,418.018188,263.97168C419.794159,261.204041,423.702057,256.751648,426.702393,254.077499C430.044098,251.099091,431.72699,248.94931,431.046204,248.528549C427.915833,246.593887,423.65863,246.201614,418.975708,247.416351C416.239075,248.126221,414,248.528671,414,248.310669C414,248.092682,416.137512,245.628357,418.75,242.834412C433.607666,226.944839,449.824921,224.77594,471.498322,235.779816L478.5,239.334656L471.794739,240.595993C450.801392,244.545105,423.460632,262.80304,414.102478,279.122437C412.406433,282.080109,411.014557,283.752594,411.009369,282.839081z"/>
    <path transform="matrix(0.153589,0,0,-0.153589,3.24831,-4.21183)" style="stroke:#000000;stroke-width:0.05mm;fill:none" d="M196.811691,240.184677C191.055374,231.312668,184.561646,224.526978,177.046722,219.531067C170.02124,214.860535,160.625763,211,156.284439,211C152.109253,211,154.65976,209.392349,162.552002,207.049408C168.940826,205.152771,171.911667,204.848221,180.839981,205.174652C189.789032,205.501831,192.43132,205.995575,197.30249,208.2509C207.70816,213.068649,210.454803,216.431168,201.993393,213.993637C198.118454,212.87735,188.252899,212.413757,187.360641,213.30603C187.046768,213.619888,188.402985,215.292938,190.374435,217.023895C192.345901,218.754868,195.323944,222.945114,196.99231,226.335556C200.050003,232.549377,202.590607,243.822449,201.23291,245.151779C200.829803,245.546448,198.840256,243.311264,196.811691,240.184677z"/>
    <path transform="matrix(0.153589,0,0,-0.153589,3.24831,-4.21183)" style="stroke:#000000;stroke-width:0.05mm;fill:none" d="M399.531616,239.770172C400.893311,229.869461,405.463135,220.312424,411.105957,215.564301C412.835815,214.108719,413.930725,212.598801,413.539124,212.208908C412.515503,211.189743,402.89563,211.681747,397.983307,213.004486C395.681458,213.624313,393.60144,213.934769,393.361023,213.694366C392.5289,212.862228,402.523315,207.224792,408,205.437134C417.74585,202.255981,433.609741,203.314697,444,207.839676L447.5,209.363937L442.553009,210.127243C430.116333,212.046219,413.733459,224.129959,405,237.825775C402.524994,241.707062,400.12027,244.909073,399.656158,244.94133C399.192047,244.973602,399.136017,242.646576,399.531616,239.770172z"/>
    <path transform="matrix(0.153589,0,0,-0.153589,3.24831,-4.21183)" style="stroke:#000000;stroke-width:0.05mm;fill:none" d="M264.117035,175.550537C263.500824,173.103348,259.351227,161.515839,254.895737,149.800537C239.728577,109.920059,236.074966,96.385567,234.568558,74.5C233.923325,65.125801,235.160828,52.526783,237.131973,48.401936C240.04837,42.299072,246.246719,45.697987,249.872284,55.388187C251.710083,60.300167,259.330261,94.00309,258.737122,94.596207C258.583344,94.749977,256.947998,91.964279,255.102982,88.405762C251.239227,80.953606,248.634674,78.932632,246.133331,81.445869C241.710922,85.889336,246.042694,110.785568,258.496277,152.5C264.963287,174.16185,266.492249,180,265.698181,180C265.444763,180,264.733246,177.997742,264.117035,175.550537z"/>
    <path transform="matrix(0.153589,0,0,-0.153589,3.24831,-4.21183)" style="stroke:#000000;stroke-width:0.05mm;fill:none" d="M335.090973,177.5C335.032898,176.544098,336.796783,170.352478,345.819977,139.838959C355.191895,108.146133,358.756073,84.33461,354.731232,80.304832C352.17453,77.74498,350.190033,79.356171,345.781616,87.571007C343.736511,91.38195,342.049011,94.17173,342.031616,93.770508C341.921661,91.233406,349.270508,59.352024,351.0802,54.515213C353.503937,48.037144,356.864105,44,359.832092,44C364.342865,44,366.256744,51.42577,366.146576,68.5C366.003265,90.715973,363.171967,102.93277,350.271362,137C345.585205,149.375,340.266205,163.774994,338.451385,169C336.636566,174.225006,335.12439,178.050003,335.090973,177.5z"/>
</svg>
